<svg width="60" height="25" viewBox="0 0 60 25" fill="none" xmlns="http://www.w3.org/2000/svg">
<g clip-path="url(#clip0_5_24778)">
<rect width="60" height="25" rx="12.5" transform="matrix(-1 0 0 1 60 0)" fill="#5BA9D3"/>
<path d="M10.6435 17.9986C10.8298 17.8973 10.9735 17.7315 11.0472 17.5327C11.9722 15.0373 14.363 13.26 17.1666 13.26C19.6865 13.26 21.873 14.6959 22.9613 16.7985C23.1542 17.1712 23.5871 17.3663 23.9995 17.2895C24.2708 17.2389 24.5504 17.2125 24.8362 17.2125C27.3567 17.2125 29.4 19.2675 29.4 21.8025C29.4 24.3375 27.3567 26.3925 24.8362 26.3925C23.7387 26.3925 22.7317 26.0029 21.9445 25.3537C21.6202 25.0862 21.1457 25.0494 20.7971 25.2844C20.6259 25.3999 20.4489 25.5074 20.2667 25.6064C20.0804 25.7077 19.9368 25.8735 19.8631 26.0723C18.9381 28.5677 16.5473 30.345 13.7437 30.345C10.138 30.345 7.215 27.4052 7.215 23.7788C7.215 21.2808 8.60188 19.1086 10.6435 17.9986Z" fill="#D0E7F6"/>
<path d="M10.8505 19.523C11.0358 19.4195 11.1797 19.2542 11.2568 19.0565C11.9983 17.1564 13.8483 15.81 16.0132 15.81C17.9238 15.81 19.5891 16.8586 20.4636 18.4109C20.6689 18.7753 21.0999 18.9688 21.5141 18.9115C21.6755 18.8891 21.8404 18.8776 22.0079 18.8776C23.978 18.8776 25.575 20.4725 25.575 22.44C25.575 24.4075 23.978 26.0024 22.0079 26.0024C21.2085 26.0024 20.4706 25.7398 19.8758 25.2963C19.5405 25.0462 19.0696 25.0089 18.7148 25.2304C18.6445 25.2743 18.5731 25.3165 18.5006 25.357C18.3153 25.4605 18.1714 25.6258 18.0943 25.8235C17.3529 27.7236 15.5028 29.07 13.3379 29.07C10.5196 29.07 8.235 26.7884 8.235 23.9738C8.235 22.0612 9.28998 20.3947 10.8505 19.523Z" fill="#E3F1F5"/>
<path d="M14.822 15.3962C14.5611 15.3962 14.3066 15.4269 14.0614 15.4852C13.9466 15.5125 13.8255 15.4655 13.7632 15.3654C13.5062 14.9527 13.211 14.5716 12.8832 14.2284C12.8538 14.1975 12.8322 14.1599 12.8203 14.119C11.9912 11.2538 9.56951 9.17999 6.71114 9.17999C4.53386 9.17999 2.60993 10.3832 1.45026 12.223C1.39404 12.3121 1.29029 12.3598 1.18591 12.3451C0.918701 12.3075 0.64636 12.2881 0.369937 12.2881C-3.17294 12.2881 -6.045 15.474 -6.045 19.404C-6.045 23.3341 -3.17294 26.52 0.369937 26.52C1.82872 26.52 3.17378 25.9799 4.25144 25.07C4.35163 24.9854 4.49909 24.9854 4.59928 25.07C5.67695 25.9799 7.022 26.52 8.48078 26.52C10.6716 26.52 12.6058 25.3018 13.7631 23.4427C13.8255 23.3426 13.9466 23.2956 14.0614 23.3229C14.3066 23.3812 14.5611 23.4119 14.822 23.4119C16.8174 23.4119 18.435 21.6175 18.435 19.404C18.435 17.1906 16.8174 15.3962 14.822 15.3962Z" fill="#D0E7F6"/>
<path d="M14.5462 16.575C14.3253 16.575 14.1098 16.5979 13.9018 16.6416C13.7932 16.6643 13.6802 16.6217 13.6167 16.5306C13.4007 16.2208 13.1539 15.9341 12.8808 15.6749C12.8484 15.6442 12.8242 15.6057 12.8104 15.5632C12.0887 13.3385 9.99904 11.73 7.53375 11.73C5.65946 11.73 4.00231 12.6597 2.99833 14.0831C2.94095 14.1645 2.84318 14.2077 2.74439 14.1954C2.51732 14.1671 2.28599 14.1525 2.05125 14.1525C-1.01186 14.1525 -3.495 16.6357 -3.495 19.6988C-3.495 22.7619 -1.01186 25.245 2.05125 25.245C3.30646 25.245 4.46429 24.828 5.39376 24.125C5.49043 24.0519 5.62456 24.0519 5.72124 24.125C6.65071 24.828 7.80854 25.245 9.06375 25.245C10.949 25.245 12.6145 24.3044 13.6167 22.8669C13.6802 22.7759 13.7932 22.7332 13.9018 22.756C14.1098 22.7996 14.3253 22.8225 14.5462 22.8225C16.2715 22.8225 17.67 21.424 17.67 19.6988C17.67 17.9736 16.2715 16.575 14.5462 16.575Z" fill="#E3F1F5"/>
</g>
<defs>
<clipPath id="clip0_5_24778">
<rect width="60" height="25" rx="12.5" transform="matrix(-1 0 0 1 60 0)" fill="white"/>
</clipPath>
</defs>
</svg>
