<svg width="32" height="32" viewBox="0 0 32 32" fill="none" xmlns="http://www.w3.org/2000/svg">
<path d="M31.8711 0.534607H0.534607V31.8711H31.8711V0.534607Z" fill="#F7DF1E"/>
<path d="M21.5847 25.0164C22.2159 26.047 23.0371 26.8046 24.4895 26.8046C25.7097 26.8046 26.4891 26.1948 26.4891 25.3522C26.4891 24.3424 25.6883 23.9848 24.3453 23.3974L23.6091 23.0815C21.4842 22.1762 20.0726 21.0421 20.0726 18.6447C20.0726 16.4362 21.7553 14.7549 24.3851 14.7549C26.2573 14.7549 27.6033 15.4065 28.5732 17.1126L26.2802 18.585C25.7753 17.6797 25.2307 17.323 24.3851 17.323C23.5226 17.323 22.9759 17.8702 22.9759 18.585C22.9759 19.4684 23.5231 19.826 24.7865 20.3731L25.5227 20.6885C28.0246 21.7614 29.4372 22.8552 29.4372 25.3144C29.4372 27.9655 27.3546 29.418 24.5577 29.418C21.823 29.418 20.0562 28.1148 19.1917 26.4067L21.5847 25.0164ZM11.1825 25.2716C11.645 26.0923 12.0658 26.7862 13.0776 26.7862C14.045 26.7862 14.6553 26.4077 14.6553 24.9358V14.9231H17.6V24.9756C17.6 28.0247 15.8123 29.4125 13.2029 29.4125C10.8452 29.4125 9.47984 28.1923 8.78546 26.7228L11.1825 25.2716Z" fill="black"/>
</svg>
