<svg width="34" height="25" viewBox="0 0 34 25" fill="none" xmlns="http://www.w3.org/2000/svg">
<g filter="url(#filter0_di_27_164)">
<circle r="11.475" transform="matrix(-0.939693 0.34202 0.34202 0.939693 12.8177 12.6687)" fill="#DDDDDD"/>
</g>
<g filter="url(#filter1_dii_27_164)">
<path fill-rule="evenodd" clip-rule="evenodd" d="M8.92493 1.91249C8.92493 2.68707 9.55285 3.31499 10.3274 3.31499C11.102 3.31499 11.7299 2.68707 11.7299 1.91249C11.7299 1.6766 11.6717 1.45431 11.5688 1.25922C10.685 1.35667 9.79854 1.55913 8.92545 1.874C8.9251 1.88679 8.92493 1.89962 8.92493 1.91249ZM3.96804 5.36106C4.00479 5.35705 4.04212 5.35499 4.07993 5.35499C4.64326 5.35499 5.09993 5.81166 5.09993 6.37499C5.09993 6.93832 4.64326 7.39499 4.07993 7.39499C3.5911 7.39499 3.18259 7.05113 3.08308 6.59209C3.35003 6.1638 3.64552 5.75239 3.96804 5.36106ZM3.65532 19.5823C3.82675 19.1644 4.23772 18.87 4.71743 18.87C5.35118 18.87 5.86493 19.3837 5.86493 20.0175C5.86493 20.5362 5.52071 20.9746 5.04822 21.1166C4.54238 20.6522 4.07546 20.1395 3.65532 19.5823ZM13.7479 24.1089C13.6024 23.9325 13.5149 23.7065 13.5149 23.46C13.5149 22.8967 13.9716 22.44 14.5349 22.44C15.0983 22.44 15.5549 22.8967 15.5549 23.46C15.5549 23.5906 15.5304 23.7156 15.4856 23.8304C14.9074 23.9693 14.3267 24.0615 13.7479 24.1089ZM10.3274 17.85C9.55285 17.85 8.92493 17.2221 8.92493 16.4475C8.92493 15.6729 9.55285 15.045 10.3274 15.045C11.102 15.045 11.7299 15.6729 11.7299 16.4475C11.7299 17.2221 11.102 17.85 10.3274 17.85ZM4.46243 15.045C3.26535 15.045 2.29493 14.0746 2.29493 12.8775C2.29493 11.6804 3.26535 10.71 4.46243 10.71C5.65951 10.71 6.62993 11.6804 6.62993 12.8775C6.62993 14.0746 5.65951 15.045 4.46243 15.045Z" fill="#999999" fill-opacity="0.5" shape-rendering="crispEdges"/>
</g>
<mask id="mask0_27_164" style="mask-type:alpha" maskUnits="userSpaceOnUse" x="10" y="-1" width="24" height="24">
<circle r="11.475" transform="matrix(-0.939693 0.34202 0.34202 0.939693 21.7573 10.8826)" fill="#C4C4C4"/>
</mask>
<g mask="url(#mask0_27_164)">
<rect width="64.515" height="24.99" transform="matrix(-1 0 0 1 62.73 0.51001)" fill="#0F405B"/>
</g>
<defs>
<filter id="filter0_di_27_164" x="-1.9754" y="-0.849387" width="28.0563" height="28.0562" filterUnits="userSpaceOnUse" color-interpolation-filters="sRGB">
<feFlood flood-opacity="0" result="BackgroundImageFix"/>
<feColorMatrix in="SourceAlpha" type="matrix" values="0 0 0 0 0 0 0 0 0 0 0 0 0 0 0 0 0 0 127 0" result="hardAlpha"/>
<feOffset dx="-0.765" dy="0.51"/>
<feGaussianBlur stdDeviation="1.275"/>
<feComposite in2="hardAlpha" operator="out"/>
<feColorMatrix type="matrix" values="0 0 0 0 0 0 0 0 0 0 0 0 0 0 0 0 0 0 0.25 0"/>
<feBlend mode="normal" in2="BackgroundImageFix" result="effect1_dropShadow_27_164"/>
<feBlend mode="normal" in="SourceGraphic" in2="effect1_dropShadow_27_164" result="shape"/>
<feColorMatrix in="SourceAlpha" type="matrix" values="0 0 0 0 0 0 0 0 0 0 0 0 0 0 0 0 0 0 127 0" result="hardAlpha"/>
<feOffset dx="-0.51" dy="-0.51"/>
<feGaussianBlur stdDeviation="0.51"/>
<feComposite in2="hardAlpha" operator="arithmetic" k2="-1" k3="1"/>
<feColorMatrix type="matrix" values="0 0 0 0 0 0 0 0 0 0 0 0 0 0 0 0 0 0 0.1 0"/>
<feBlend mode="normal" in2="shape" result="effect2_innerShadow_27_164"/>
</filter>
<filter id="filter1_dii_27_164" x="2.03992" y="1.00422" width="13.77" height="23.8696" filterUnits="userSpaceOnUse" color-interpolation-filters="sRGB">
<feFlood flood-opacity="0" result="BackgroundImageFix"/>
<feColorMatrix in="SourceAlpha" type="matrix" values="0 0 0 0 0 0 0 0 0 0 0 0 0 0 0 0 0 0 127 0" result="hardAlpha"/>
<feOffset dy="0.255"/>
<feGaussianBlur stdDeviation="0.1275"/>
<feComposite in2="hardAlpha" operator="out"/>
<feColorMatrix type="matrix" values="0 0 0 0 0 0 0 0 0 0 0 0 0 0 0 0 0 0 0.1 0"/>
<feBlend mode="normal" in2="BackgroundImageFix" result="effect1_dropShadow_27_164"/>
<feBlend mode="normal" in="SourceGraphic" in2="effect1_dropShadow_27_164" result="shape"/>
<feColorMatrix in="SourceAlpha" type="matrix" values="0 0 0 0 0 0 0 0 0 0 0 0 0 0 0 0 0 0 127 0" result="hardAlpha"/>
<feOffset dx="0.255" dy="0.765"/>
<feGaussianBlur stdDeviation="0.3825"/>
<feComposite in2="hardAlpha" operator="arithmetic" k2="-1" k3="1"/>
<feColorMatrix type="matrix" values="0 0 0 0 0 0 0 0 0 0 0 0 0 0 0 0 0 0 0.14 0"/>
<feBlend mode="normal" in2="shape" result="effect2_innerShadow_27_164"/>
<feColorMatrix in="SourceAlpha" type="matrix" values="0 0 0 0 0 0 0 0 0 0 0 0 0 0 0 0 0 0 127 0" result="hardAlpha"/>
<feOffset dy="-0.255"/>
<feGaussianBlur stdDeviation="1.275"/>
<feComposite in2="hardAlpha" operator="arithmetic" k2="-1" k3="1"/>
<feColorMatrix type="matrix" values="0 0 0 0 1 0 0 0 0 1 0 0 0 0 1 0 0 0 0.1 0"/>
<feBlend mode="normal" in2="effect2_innerShadow_27_164" result="effect3_innerShadow_27_164"/>
</filter>
</defs>
</svg>
