<svg width="60" height="25" viewBox="0 0 60 25" fill="none" xmlns="http://www.w3.org/2000/svg">
<g clip-path="url(#clip0_5_25128)">
<rect width="60" height="25" rx="12.5" transform="matrix(-1 0 0 1 60 0)" fill="#0F405B"/>
<g opacity="0.6">
<path opacity="0.5" d="M45.8208 11.4227C45.8937 11.1984 46.211 11.1984 46.2839 11.4227V11.4227C46.3165 11.5231 46.41 11.591 46.5155 11.591V11.591C46.7514 11.591 46.8495 11.8928 46.6586 12.0315V12.0315C46.5733 12.0935 46.5376 12.2034 46.5702 12.3037V12.3037C46.6431 12.5281 46.3863 12.7146 46.1955 12.576V12.576C46.1101 12.514 45.9946 12.514 45.9092 12.576V12.576C45.7184 12.7146 45.4616 12.5281 45.5345 12.3037V12.3037C45.5671 12.2034 45.5314 12.0935 45.446 12.0315V12.0315C45.2552 11.8928 45.3533 11.591 45.5892 11.591V11.591C45.6947 11.591 45.7882 11.5231 45.8208 11.4227V11.4227Z" fill="#F4FEFF"/>
<path opacity="0.5" d="M45.8208 11.4227C45.8937 11.1984 46.211 11.1984 46.2839 11.4227V11.4227C46.3165 11.5231 46.41 11.591 46.5155 11.591V11.591C46.7514 11.591 46.8495 11.8928 46.6586 12.0315V12.0315C46.5733 12.0935 46.5376 12.2034 46.5702 12.3037V12.3037C46.6431 12.5281 46.3863 12.7146 46.1955 12.576V12.576C46.1101 12.514 45.9946 12.514 45.9092 12.576V12.576C45.7184 12.7146 45.4616 12.5281 45.5345 12.3037V12.3037C45.5671 12.2034 45.5314 12.0935 45.446 12.0315V12.0315C45.2552 11.8928 45.3533 11.591 45.5892 11.591V11.591C45.6947 11.591 45.7882 11.5231 45.8208 11.4227V11.4227Z" fill="#F4FEFF"/>
<path opacity="0.5" d="M41.7223 20.7266C41.6462 20.9469 41.3326 20.9411 41.2646 20.7181V20.7181C41.2343 20.6184 41.1431 20.5496 41.0389 20.5476V20.5476C40.8058 20.5433 40.7144 20.2433 40.9055 20.1098V20.1098C40.991 20.0501 41.0283 19.9421 40.9979 19.8424V19.8424C40.93 19.6194 41.1871 19.4398 41.3731 19.5803V19.5803C41.4563 19.6431 41.5705 19.6452 41.656 19.5855V19.5855C41.8471 19.452 42.0973 19.641 42.0212 19.8613V19.8613C41.9872 19.9599 42.0205 20.0691 42.1037 20.1319V20.1319C42.2897 20.2724 42.1873 20.5689 41.9542 20.5646V20.5646C41.85 20.5626 41.7563 20.6281 41.7223 20.7266V20.7266Z" fill="#F4FEFF"/>
<path opacity="0.5" d="M52.4508 21.6228C52.5237 21.3984 52.841 21.3984 52.9139 21.6228V21.6228C52.9465 21.7231 53.04 21.791 53.1455 21.791V21.791C53.3814 21.791 53.4795 22.0929 53.2886 22.2315V22.2315C53.2033 22.2935 53.1676 22.4034 53.2002 22.5038V22.5038C53.2731 22.7281 53.0163 22.9146 52.8255 22.776V22.776C52.7401 22.714 52.6246 22.714 52.5392 22.776V22.776C52.3484 22.9146 52.0916 22.7281 52.1645 22.5038V22.5038C52.1971 22.4034 52.1614 22.2935 52.0761 22.2315V22.2315C51.8852 22.0929 51.9833 21.791 52.2192 21.791V21.791C52.3247 21.791 52.4182 21.7231 52.4508 21.6228V21.6228Z" fill="#F4FEFF"/>
<path opacity="0.5" d="M52.4508 21.6228C52.5237 21.3984 52.841 21.3984 52.9139 21.6228V21.6228C52.9465 21.7231 53.04 21.791 53.1455 21.791V21.791C53.3814 21.791 53.4795 22.0929 53.2886 22.2315V22.2315C53.2033 22.2935 53.1676 22.4034 53.2002 22.5038V22.5038C53.2731 22.7281 53.0163 22.9146 52.8255 22.776V22.776C52.7401 22.714 52.6246 22.714 52.5392 22.776V22.776C52.3484 22.9146 52.0916 22.7281 52.1645 22.5038V22.5038C52.1971 22.4034 52.1614 22.2935 52.0761 22.2315V22.2315C51.8852 22.0929 51.9833 21.791 52.2192 21.791V21.791C52.3247 21.791 52.4182 21.7231 52.4508 21.6228V21.6228Z" fill="#F4FEFF"/>
<path opacity="0.5" d="M35.6097 10.5319C35.5336 10.7522 35.22 10.7464 35.1521 10.5234V10.5234C35.1217 10.4237 35.0306 10.3548 34.9264 10.3529V10.3529C34.6933 10.3486 34.6019 10.0486 34.793 9.91505V9.91505C34.8784 9.85535 34.9157 9.7474 34.8854 9.64767V9.64767C34.8174 9.42468 35.0745 9.24504 35.2606 9.38552V9.38552C35.3438 9.44835 35.458 9.45046 35.5434 9.39075V9.39075C35.7345 9.25724 35.9848 9.44626 35.9087 9.66659V9.66659C35.8746 9.76513 35.9079 9.87438 35.9911 9.93721V9.93721C36.1771 10.0777 36.0747 10.3741 35.8416 10.3698V10.3698C35.7374 10.3679 35.6438 10.4333 35.6097 10.5319V10.5319Z" fill="#F4FEFF"/>
<path opacity="0.75" d="M46.4533 3.02029C46.5787 2.68278 47.056 2.68278 47.1814 3.02029L47.1885 3.0396C47.2407 3.18015 47.3748 3.27341 47.5248 3.27341H47.6073C47.9422 3.27341 48.0694 3.71083 47.7868 3.8905V3.8905C47.6536 3.97518 47.5985 4.14353 47.6534 4.2915V4.2915C47.7695 4.60404 47.4249 4.89306 47.1436 4.7142L47.0286 4.64111C46.8997 4.55916 46.735 4.55916 46.6061 4.64111L46.4911 4.7142C46.2098 4.89306 45.8652 4.60404 45.9813 4.2915V4.2915C46.0362 4.14353 45.9811 3.97518 45.8479 3.8905V3.8905C45.5653 3.71083 45.6925 3.27341 46.0274 3.27341H46.1099C46.2599 3.27341 46.394 3.18015 46.4462 3.0396L46.4533 3.02029Z" fill="#F4FEFF"/>
<path opacity="0.75" d="M46.4533 3.02029C46.5787 2.68278 47.056 2.68278 47.1814 3.02029L47.1885 3.0396C47.2407 3.18015 47.3748 3.27341 47.5248 3.27341H47.6073C47.9422 3.27341 48.0694 3.71083 47.7868 3.8905V3.8905C47.6536 3.97518 47.5985 4.14353 47.6534 4.2915V4.2915C47.7695 4.60404 47.4249 4.89306 47.1436 4.7142L47.0286 4.64111C46.8997 4.55916 46.735 4.55916 46.6061 4.64111L46.4911 4.7142C46.2098 4.89306 45.8652 4.60404 45.9813 4.2915V4.2915C46.0362 4.14353 45.9811 3.97518 45.8479 3.8905V3.8905C45.5653 3.71083 45.6925 3.27341 46.0274 3.27341H46.1099C46.2599 3.27341 46.394 3.18015 46.4462 3.0396L46.4533 3.02029Z" fill="#F4FEFF"/>
<path opacity="0.75" d="M52.9729 13.2365C53.0865 12.9103 53.5532 12.9103 53.6667 13.2365V13.2365C53.7158 13.3772 53.8491 13.4734 53.9982 13.4734H54.0397C54.3723 13.4734 54.5044 13.9036 54.2291 14.0902V14.0902C54.1026 14.176 54.0499 14.3372 54.1002 14.4816V14.4816C54.2094 14.7952 53.8572 15.0712 53.5823 14.8848L53.5261 14.8467C53.4016 14.7622 53.2381 14.7622 53.1136 14.8467L53.0574 14.8848C52.7825 15.0712 52.4303 14.7952 52.5395 14.4816V14.4816C52.5898 14.3372 52.5371 14.176 52.4106 14.0902V14.0902C52.1353 13.9036 52.2674 13.4734 52.6 13.4734H52.6415C52.7906 13.4734 52.9239 13.3772 52.9729 13.2365V13.2365Z" fill="#F4FEFF"/>
<path opacity="0.75" d="M52.9729 13.2365C53.0865 12.9103 53.5532 12.9103 53.6667 13.2365V13.2365C53.7158 13.3772 53.8491 13.4734 53.9982 13.4734H54.0397C54.3723 13.4734 54.5044 13.9036 54.2291 14.0902V14.0902C54.1026 14.176 54.0499 14.3372 54.1002 14.4816V14.4816C54.2094 14.7952 53.8572 15.0712 53.5823 14.8848L53.5261 14.8467C53.4016 14.7622 53.2381 14.7622 53.1136 14.8467L53.0574 14.8848C52.7825 15.0712 52.4303 14.7952 52.5395 14.4816V14.4816C52.5898 14.3372 52.5371 14.176 52.4106 14.0902V14.0902C52.1353 13.9036 52.2674 13.4734 52.6 13.4734H52.6415C52.7906 13.4734 52.9239 13.3772 52.9729 13.2365V13.2365Z" fill="#F4FEFF"/>
<path opacity="0.75" d="M34.9377 18.9887C34.8235 19.3192 34.3531 19.3105 34.2512 18.976V18.976C34.2057 18.8264 34.0689 18.7232 33.9126 18.7203V18.7203C33.563 18.7138 33.4259 18.2637 33.7125 18.0635V18.0635C33.8407 17.9739 33.8967 17.812 33.8511 17.6624V17.6624C33.7492 17.3279 34.1349 17.0585 34.4139 17.2692V17.2692C34.5387 17.3634 34.71 17.3666 34.8382 17.277V17.277C35.1248 17.0768 35.5003 17.3603 35.3861 17.6908V17.6908C35.335 17.8386 35.3849 18.0025 35.5097 18.0967V18.0967C35.7888 18.3074 35.6351 18.7521 35.2855 18.7457V18.7457C35.1292 18.7428 34.9888 18.8409 34.9377 18.9887V18.9887Z" fill="#F4FEFF"/>
<path d="M58.1949 11.16C58.2176 11.0551 58.3671 11.0551 58.3898 11.16V11.16C58.3998 11.2059 58.4403 11.2386 58.4873 11.2386H58.5038C58.6085 11.2386 58.6632 11.363 58.5924 11.4401L58.5226 11.5163C58.4944 11.547 58.4829 11.5895 58.4917 11.6303L58.5196 11.7593C58.5397 11.8518 58.4246 11.9114 58.3607 11.8417V11.8417C58.3239 11.8016 58.2608 11.8016 58.224 11.8417V11.8417C58.1601 11.9114 58.045 11.8518 58.065 11.7593L58.093 11.6303C58.1018 11.5895 58.0903 11.547 58.0621 11.5163L57.9923 11.4401C57.9215 11.363 57.9762 11.2386 58.0809 11.2386H58.0974C58.1443 11.2386 58.1849 11.2059 58.1949 11.16V11.16Z" fill="#F4FEFF"/>
<path d="M58.1949 11.16C58.2176 11.0551 58.3671 11.0551 58.3898 11.16V11.16C58.3998 11.2059 58.4403 11.2386 58.4873 11.2386H58.5038C58.6085 11.2386 58.6632 11.363 58.5924 11.4401L58.5226 11.5163C58.4944 11.547 58.4829 11.5895 58.4917 11.6303L58.5196 11.7593C58.5397 11.8518 58.4246 11.9114 58.3607 11.8417V11.8417C58.3239 11.8016 58.2608 11.8016 58.224 11.8417V11.8417C58.1601 11.9114 58.045 11.8518 58.065 11.7593L58.093 11.6303C58.1018 11.5895 58.0903 11.547 58.0621 11.5163L57.9923 11.4401C57.9215 11.363 57.9762 11.2386 58.0809 11.2386H58.0974C58.1443 11.2386 58.1849 11.2059 58.1949 11.16V11.16Z" fill="#F4FEFF"/>
<path d="M29.6334 20.8553C29.5953 20.9655 29.4385 20.9626 29.4045 20.8511V20.8511C29.3894 20.8012 29.3438 20.7668 29.2917 20.7658V20.7658C29.1751 20.7637 29.1294 20.6137 29.225 20.5469V20.5469C29.2677 20.517 29.2864 20.4631 29.2712 20.4132V20.4132C29.2372 20.3017 29.3658 20.2119 29.4588 20.2821V20.2821C29.5004 20.3135 29.5575 20.3146 29.6002 20.2847V20.2847C29.6957 20.218 29.8209 20.3125 29.7828 20.4227V20.4227C29.7658 20.4719 29.7824 20.5266 29.824 20.558V20.558C29.9171 20.6282 29.8658 20.7764 29.7493 20.7743V20.7743C29.6972 20.7733 29.6504 20.806 29.6334 20.8553V20.8553Z" fill="#F4FEFF"/>
<path d="M23.5208 10.6606C23.4828 10.7707 23.326 10.7678 23.292 10.6563V10.6563C23.2768 10.6065 23.2312 10.5721 23.1791 10.5711V10.5711C23.0626 10.5689 23.0169 10.4189 23.1124 10.3522V10.3522C23.1552 10.3223 23.1738 10.2683 23.1586 10.2185V10.2185C23.1247 10.107 23.2532 10.0172 23.3462 10.0874V10.0874C23.3878 10.1188 23.4449 10.1199 23.4876 10.09V10.09C23.5832 10.0233 23.7083 10.1178 23.6703 10.2279V10.2279C23.6533 10.2772 23.6699 10.3318 23.7115 10.3632V10.3632C23.8045 10.4335 23.7533 10.5817 23.6368 10.5796V10.5796C23.5846 10.5786 23.5378 10.6113 23.5208 10.6606V10.6606Z" fill="#F4FEFF"/>
</g>
<path fill-rule="evenodd" clip-rule="evenodd" d="M11.55 -0.765015H47.505C54.9692 -0.765015 61.02 5.28586 61.02 12.75C61.02 20.2141 54.9692 26.265 47.505 26.265H11.55C4.08591 26.265 -1.96497 20.2141 -1.96497 12.75C-1.96497 5.28586 4.08591 -0.765015 11.55 -0.765015ZM11.55 -1.46627e-05C4.5084 -1.46627e-05 -1.19997 5.70835 -1.19997 12.75C-1.19997 19.7916 4.5084 25.5 11.55 25.5H47.505C54.5467 25.5 60.255 19.7916 60.255 12.75C60.255 5.70835 54.5467 -1.46627e-05 47.505 -1.46627e-05H11.55Z" fill="#40647F" fill-opacity="0.3"/>
</g>
<defs>
<clipPath id="clip0_5_25128">
<rect width="60" height="25" rx="12.5" transform="matrix(-1 0 0 1 60 0)" fill="white"/>
</clipPath>
</defs>
</svg>
