<svg width="437" height="89" viewBox="0 0 437 89" fill="none" xmlns="http://www.w3.org/2000/svg">
<path d="M68.6397 29.0909H57.2235C57.1425 28.1463 56.9266 27.2894 56.5758 26.5202C56.2384 25.7511 55.7661 25.0898 55.1589 24.5366C54.5651 23.9698 53.8432 23.538 52.993 23.2411C52.1429 22.9308 51.178 22.7756 50.0985 22.7756C48.2093 22.7756 46.6102 23.2344 45.3013 24.152C44.0058 25.0696 43.0207 26.3853 42.346 28.0991C41.6848 29.8129 41.3542 31.8707 41.3542 34.2727C41.3542 36.8097 41.6915 38.935 42.3663 40.6488C43.0545 42.3491 44.0463 43.631 45.3418 44.4947C46.6372 45.3448 48.1958 45.7699 50.0175 45.7699C51.0566 45.7699 51.9877 45.6417 52.8109 45.3853C53.634 45.1154 54.3492 44.7308 54.9565 44.2315C55.5637 43.7322 56.0562 43.1317 56.4341 42.43C56.8254 41.7148 57.0886 40.9119 57.2235 40.0213L68.6397 40.1023C68.5048 41.8565 68.0122 43.6445 67.1621 45.4663C66.3119 47.2745 65.1042 48.9478 63.5388 50.4862C61.987 52.011 60.0641 53.239 57.77 54.1701C55.476 55.1012 52.8109 55.5668 49.7746 55.5668C45.9692 55.5668 42.5552 54.7504 39.5324 53.1175C36.5232 51.4847 34.1415 49.0827 32.3872 45.9116C30.6464 42.7404 29.7761 38.8608 29.7761 34.2727C29.7761 29.6577 30.6667 25.7713 32.4479 22.6136C34.2292 19.4425 36.6312 17.0472 39.6539 15.4279C42.6766 13.7951 46.0502 12.9787 49.7746 12.9787C52.3925 12.9787 54.8013 13.3363 57.0008 14.0515C59.2004 14.7667 61.1301 15.8125 62.7899 17.1889C64.4497 18.5518 65.7856 20.2319 66.7977 22.229C67.8098 24.2262 68.4238 26.5135 68.6397 29.0909ZM73.7456 13.5455H87.7527L97.3877 37.0256H97.8734L107.508 13.5455H121.515V55H110.504V31.0341H110.18L100.95 54.6761H94.3109L85.0808 30.8722H84.757V55H73.7456V13.5455ZM142.799 55H126.849V13.5455H142.637C146.902 13.5455 150.586 14.3754 153.689 16.0352C156.807 17.6815 159.208 20.0565 160.895 23.1602C162.596 26.2504 163.446 29.9545 163.446 34.2727C163.446 38.5909 162.602 42.3018 160.916 45.4055C159.229 48.4957 156.84 50.8707 153.75 52.5305C150.66 54.1768 147.01 55 142.799 55ZM138.103 45.446H142.395C144.446 45.446 146.193 45.1154 147.637 44.4542C149.095 43.793 150.201 42.6527 150.957 41.0334C151.726 39.4141 152.11 37.1605 152.11 34.2727C152.11 31.3849 151.719 29.1314 150.936 27.5121C150.167 25.8928 149.034 24.7525 147.536 24.0913C146.052 23.43 144.23 23.0994 142.071 23.0994H138.103V45.446ZM181.203 49.3324V19.375H190.271V49.3324H181.203ZM170.758 38.8878V29.8196H200.715V38.8878H170.758ZM241.876 26.5C241.768 25.1506 241.262 24.098 240.358 23.3423C239.468 22.5866 238.111 22.2088 236.29 22.2088C235.129 22.2088 234.178 22.3505 233.436 22.6339C232.707 22.9038 232.167 23.2749 231.816 23.7472C231.466 24.2195 231.283 24.7592 231.27 25.3665C231.243 25.8658 231.331 26.3178 231.533 26.7227C231.749 27.114 232.086 27.4716 232.545 27.7955C233.004 28.1058 233.591 28.3892 234.306 28.6456C235.021 28.902 235.871 29.1314 236.856 29.3338L240.257 30.0625C242.551 30.5483 244.515 31.1893 246.147 31.9854C247.78 32.7816 249.116 33.7195 250.155 34.799C251.194 35.8651 251.957 37.0661 252.442 38.402C252.942 39.7379 253.198 41.1953 253.212 42.7741C253.198 45.5 252.517 47.8075 251.167 49.6967C249.818 51.5859 247.888 53.0231 245.378 54.0082C242.882 54.9933 239.879 55.4858 236.371 55.4858C232.768 55.4858 229.624 54.9528 226.938 53.8867C224.266 52.8207 222.188 51.1811 220.704 48.968C219.233 46.7415 218.491 43.8942 218.477 40.4261H229.165C229.232 41.6946 229.549 42.7607 230.116 43.6243C230.683 44.4879 231.479 45.1424 232.505 45.5877C233.544 46.033 234.778 46.2557 236.209 46.2557C237.41 46.2557 238.415 46.1072 239.225 45.8104C240.034 45.5135 240.648 45.1019 241.067 44.5756C241.485 44.0494 241.701 43.4489 241.714 42.7741C241.701 42.1399 241.492 41.5866 241.087 41.1143C240.696 40.6286 240.048 40.1967 239.144 39.8189C238.24 39.4276 237.018 39.0632 235.48 38.7259L231.351 37.8352C227.68 37.0391 224.786 35.7099 222.667 33.8477C220.562 31.9719 219.516 29.4148 219.53 26.1761C219.516 23.5447 220.218 21.244 221.635 19.2738C223.065 17.2901 225.042 15.745 227.566 14.6385C230.103 13.532 233.011 12.9787 236.29 12.9787C239.636 12.9787 242.531 13.5387 244.973 14.6587C247.416 15.7788 249.298 17.3576 250.621 19.3952C251.957 21.4194 252.631 23.7876 252.645 26.5H241.876ZM257.493 55V13.5455H275.386C278.463 13.5455 281.155 14.1527 283.462 15.3672C285.77 16.5817 287.565 18.2887 288.847 20.4883C290.129 22.6879 290.77 25.2585 290.77 28.2003C290.77 31.169 290.108 33.7397 288.786 35.9123C287.477 38.0849 285.635 39.7582 283.26 40.9322C280.899 42.1062 278.139 42.6932 274.981 42.6932H264.294V33.9489H272.714C274.037 33.9489 275.163 33.7195 276.095 33.2607C277.039 32.7884 277.761 32.1204 278.26 31.2567C278.773 30.3931 279.03 29.3743 279.03 28.2003C279.03 27.0128 278.773 26.0007 278.26 25.1641C277.761 24.3139 277.039 23.6662 276.095 23.2209C275.163 22.7621 274.037 22.5327 272.714 22.5327H268.747V55H257.493ZM300.491 55H288.346L302.029 13.5455H317.413L331.096 55H318.951L309.883 24.9616H309.559L300.491 55ZM298.224 38.6449H321.056V47.0653H298.224V38.6449ZM371.842 29.0909H360.426C360.345 28.1463 360.129 27.2894 359.778 26.5202C359.441 25.7511 358.968 25.0898 358.361 24.5366C357.767 23.9698 357.045 23.538 356.195 23.2411C355.345 22.9308 354.38 22.7756 353.301 22.7756C351.411 22.7756 349.812 23.2344 348.503 24.152C347.208 25.0696 346.223 26.3853 345.548 28.0991C344.887 29.8129 344.556 31.8707 344.556 34.2727C344.556 36.8097 344.894 38.935 345.568 40.6488C346.257 42.3491 347.248 43.631 348.544 44.4947C349.839 45.3448 351.398 45.7699 353.22 45.7699C354.259 45.7699 355.19 45.6417 356.013 45.3853C356.836 45.1154 357.551 44.7308 358.159 44.2315C358.766 43.7322 359.258 43.1317 359.636 42.43C360.028 41.7148 360.291 40.9119 360.426 40.0213L371.842 40.1023C371.707 41.8565 371.214 43.6445 370.364 45.4663C369.514 47.2745 368.306 48.9478 366.741 50.4862C365.189 52.011 363.266 53.239 360.972 54.1701C358.678 55.1012 356.013 55.5668 352.977 55.5668C349.171 55.5668 345.757 54.7504 342.735 53.1175C339.725 51.4847 337.344 49.0827 335.589 45.9116C333.849 42.7404 332.978 38.8608 332.978 34.2727C332.978 29.6577 333.869 25.7713 335.65 22.6136C337.431 19.4425 339.833 17.0472 342.856 15.4279C345.879 13.7951 349.252 12.9787 352.977 12.9787C355.595 12.9787 358.003 13.3363 360.203 14.0515C362.403 14.7667 364.332 15.8125 365.992 17.1889C367.652 18.5518 368.988 20.2319 370 22.229C371.012 24.2262 371.626 26.5135 371.842 29.0909ZM376.948 55V13.5455H406.824V22.6136H388.202V29.7386H405.286V38.8068H388.202V45.9318H406.743V55H376.948Z" fill="black"/>
<path d="M125.789 80.1875V81.8125H122.039V80.1875H125.789ZM129.232 85V77H132.685C133.279 77 133.798 77.1172 134.244 77.3516C134.689 77.5859 135.035 77.9154 135.283 78.3398C135.53 78.7643 135.654 79.2604 135.654 79.8281C135.654 80.401 135.526 80.8971 135.271 81.3164C135.018 81.7357 134.663 82.0586 134.205 82.2852C133.749 82.5117 133.216 82.625 132.607 82.625H130.544V80.9375H132.169C132.425 80.9375 132.642 80.8932 132.822 80.8047C133.004 80.7135 133.143 80.5846 133.24 80.418C133.339 80.2513 133.388 80.0547 133.388 79.8281C133.388 79.599 133.339 79.4036 133.24 79.2422C133.143 79.0781 133.004 78.9531 132.822 78.8672C132.642 78.7786 132.425 78.7344 132.169 78.7344H131.404V85H129.232ZM139.228 85.1094C138.587 85.1094 138.035 84.987 137.572 84.7422C137.111 84.4948 136.755 84.1406 136.505 83.6797C136.258 83.2161 136.134 82.6615 136.134 82.0156C136.134 81.3958 136.259 80.8542 136.509 80.3906C136.759 79.9271 137.112 79.5664 137.568 79.3086C138.024 79.0508 138.561 78.9219 139.181 78.9219C139.634 78.9219 140.044 78.9922 140.412 79.1328C140.779 79.2734 141.093 79.4779 141.353 79.7461C141.613 80.0117 141.814 80.3346 141.955 80.7148C142.095 81.0951 142.166 81.5234 142.166 82V82.5H136.806V81.3125H140.181C140.179 81.1406 140.134 80.9896 140.048 80.8594C139.965 80.7266 139.852 80.6237 139.708 80.5508C139.568 80.4753 139.408 80.4375 139.228 80.4375C139.054 80.4375 138.893 80.4753 138.748 80.5508C138.602 80.6237 138.485 80.7253 138.396 80.8555C138.31 80.9857 138.264 81.138 138.259 81.3125V82.5938C138.259 82.7865 138.3 82.9583 138.38 83.1094C138.461 83.2604 138.577 83.3789 138.728 83.4648C138.879 83.5508 139.061 83.5938 139.275 83.5938C139.423 83.5938 139.559 83.5729 139.681 83.5312C139.806 83.4896 139.913 83.4297 140.001 83.3516C140.09 83.2708 140.155 83.1745 140.197 83.0625H142.166C142.098 83.4792 141.938 83.8411 141.685 84.1484C141.432 84.4531 141.098 84.6901 140.681 84.8594C140.267 85.026 139.783 85.1094 139.228 85.1094ZM143.045 85V79H145.139V80.1406H145.202C145.311 79.7187 145.484 79.4102 145.721 79.2148C145.961 79.0195 146.241 78.9219 146.561 78.9219C146.655 78.9219 146.747 78.9297 146.838 78.9453C146.932 78.9583 147.022 78.9779 147.108 79.0039V80.8438C147.001 80.8073 146.87 80.7799 146.713 80.7617C146.557 80.7435 146.423 80.7344 146.311 80.7344C146.1 80.7344 145.91 80.7826 145.741 80.8789C145.574 80.9727 145.443 81.1055 145.346 81.2773C145.25 81.4466 145.202 81.6458 145.202 81.875V85H143.045ZM153.299 80.9531H151.315C151.305 80.8307 151.262 80.7253 151.186 80.6367C151.111 80.5482 151.013 80.4805 150.893 80.4336C150.776 80.3841 150.646 80.3594 150.502 80.3594C150.318 80.3594 150.159 80.3932 150.026 80.4609C149.893 80.5286 149.828 80.625 149.831 80.75C149.828 80.8385 149.866 80.9206 149.944 80.9961C150.025 81.0716 150.18 81.1302 150.409 81.1719L151.627 81.3906C152.242 81.5026 152.699 81.6914 152.999 81.957C153.301 82.2201 153.453 82.5729 153.456 83.0156C153.453 83.4427 153.325 83.8138 153.073 84.1289C152.823 84.4414 152.48 84.6836 152.045 84.8555C151.613 85.0247 151.12 85.1094 150.565 85.1094C149.648 85.1094 148.931 84.9219 148.413 84.5469C147.897 84.1719 147.609 83.6771 147.549 83.0625H149.69C149.719 83.2526 149.812 83.3997 149.971 83.5039C150.133 83.6055 150.336 83.6562 150.581 83.6562C150.778 83.6562 150.941 83.6224 151.069 83.5547C151.199 83.487 151.265 83.3906 151.268 83.2656C151.265 83.151 151.208 83.0599 151.096 82.9922C150.987 82.9245 150.815 82.8698 150.581 82.8281L149.518 82.6406C148.906 82.5339 148.448 82.3307 148.143 82.0312C147.838 81.7318 147.687 81.3464 147.69 80.875C147.687 80.4583 147.797 80.1055 148.018 79.8164C148.242 79.5247 148.561 79.3034 148.975 79.1523C149.392 78.9987 149.885 78.9219 150.456 78.9219C151.323 78.9219 152.006 79.1016 152.506 79.4609C153.009 79.8203 153.273 80.3177 153.299 80.9531ZM157.172 85.1094C156.521 85.1094 155.964 84.9805 155.5 84.7227C155.037 84.4622 154.681 84.1003 154.434 83.6367C154.187 83.1706 154.063 82.6302 154.063 82.0156C154.063 81.401 154.187 80.862 154.434 80.3984C154.681 79.9323 155.037 79.5703 155.5 79.3125C155.964 79.0521 156.521 78.9219 157.172 78.9219C157.823 78.9219 158.381 79.0521 158.844 79.3125C159.308 79.5703 159.663 79.9323 159.911 80.3984C160.158 80.862 160.282 81.401 160.282 82.0156C160.282 82.6302 160.158 83.1706 159.911 83.6367C159.663 84.1003 159.308 84.4622 158.844 84.7227C158.381 84.9805 157.823 85.1094 157.172 85.1094ZM157.188 83.5156C157.37 83.5156 157.528 83.4544 157.661 83.332C157.793 83.2096 157.896 83.0352 157.969 82.8086C158.042 82.582 158.079 82.3125 158.079 82C158.079 81.6849 158.042 81.4154 157.969 81.1914C157.896 80.9648 157.793 80.7904 157.661 80.668C157.528 80.5456 157.37 80.4844 157.188 80.4844C156.995 80.4844 156.83 80.5456 156.692 80.668C156.554 80.7904 156.448 80.9648 156.375 81.1914C156.303 81.4154 156.266 81.6849 156.266 82C156.266 82.3125 156.303 82.582 156.375 82.8086C156.448 83.0352 156.554 83.2096 156.692 83.332C156.83 83.4544 156.995 83.5156 157.188 83.5156ZM163.313 81.625V85H161.157V79H163.204V80.1406H163.266C163.396 79.7604 163.625 79.4622 163.954 79.2461C164.284 79.0299 164.67 78.9219 165.11 78.9219C165.534 78.9219 165.903 79.0195 166.215 79.2148C166.53 79.4076 166.774 79.6732 166.946 80.0117C167.12 80.3503 167.206 80.737 167.204 81.1719V85H165.047V81.625C165.05 81.3281 164.974 81.0951 164.821 80.9258C164.67 80.7565 164.459 80.6719 164.188 80.6719C164.011 80.6719 163.856 80.7109 163.723 80.7891C163.593 80.8646 163.493 80.974 163.422 81.1172C163.352 81.2578 163.316 81.4271 163.313 81.625ZM169.94 85.0938C169.557 85.0938 169.219 85.0313 168.924 84.9062C168.633 84.7786 168.403 84.5859 168.237 84.3281C168.07 84.0703 167.987 83.7422 167.987 83.3437C167.987 83.0156 168.043 82.7357 168.155 82.5039C168.267 82.2695 168.423 82.0781 168.624 81.9297C168.824 81.7812 169.057 81.668 169.323 81.5898C169.591 81.5117 169.88 81.4609 170.19 81.4375C170.526 81.4115 170.795 81.3802 170.999 81.3437C171.204 81.3047 171.353 81.2513 171.444 81.1836C171.535 81.1133 171.581 81.0208 171.581 80.9062V80.8906C171.581 80.7344 171.521 80.6146 171.401 80.5312C171.281 80.4479 171.127 80.4062 170.94 80.4062C170.734 80.4062 170.566 80.4518 170.436 80.543C170.308 80.6315 170.232 80.7682 170.206 80.9531H168.221C168.247 80.5885 168.363 80.2526 168.569 79.9453C168.777 79.6354 169.081 79.388 169.479 79.2031C169.877 79.0156 170.375 78.9219 170.971 78.9219C171.401 78.9219 171.786 78.9727 172.127 79.0742C172.469 79.1732 172.759 79.3125 172.999 79.4922C173.238 79.6693 173.42 79.8776 173.545 80.1172C173.673 80.3542 173.737 80.612 173.737 80.8906V85H171.721V84.1562H171.674C171.555 84.3802 171.409 84.5612 171.237 84.6992C171.068 84.8372 170.874 84.9375 170.655 85C170.439 85.0625 170.2 85.0938 169.94 85.0938ZM170.643 83.7344C170.807 83.7344 170.961 83.7005 171.104 83.6328C171.25 83.5651 171.368 83.4674 171.459 83.3398C171.551 83.2122 171.596 83.0573 171.596 82.875V82.375C171.539 82.3984 171.478 82.4206 171.413 82.4414C171.35 82.4622 171.282 82.4818 171.209 82.5C171.139 82.5182 171.064 82.5352 170.983 82.5508C170.905 82.5664 170.823 82.5807 170.737 82.5938C170.57 82.6198 170.433 82.6628 170.327 82.7227C170.222 82.7799 170.144 82.8516 170.092 82.9375C170.043 83.0208 170.018 83.1146 170.018 83.2187C170.018 83.3854 170.077 83.513 170.194 83.6016C170.311 83.6901 170.461 83.7344 170.643 83.7344ZM176.923 77V85H174.767V77H176.923ZM180.182 85V77H182.338V80.0469H182.37C182.448 79.8437 182.562 79.6576 182.713 79.4883C182.864 79.3164 183.052 79.1797 183.276 79.0781C183.5 78.974 183.76 78.9219 184.057 78.9219C184.453 78.9219 184.829 79.0273 185.186 79.2383C185.545 79.4492 185.837 79.7812 186.061 80.2344C186.288 80.6875 186.401 81.276 186.401 82C186.401 82.6927 186.293 83.2669 186.077 83.7227C185.863 84.1784 185.577 84.5182 185.217 84.7422C184.861 84.9661 184.469 85.0781 184.042 85.0781C183.76 85.0781 183.509 85.0326 183.288 84.9414C183.069 84.8477 182.881 84.7214 182.725 84.5625C182.571 84.401 182.453 84.2187 182.37 84.0156H182.323V85H180.182ZM182.292 82C182.292 82.2917 182.329 82.5443 182.405 82.7578C182.483 82.9687 182.592 83.1328 182.733 83.25C182.876 83.3646 183.047 83.4219 183.245 83.4219C183.443 83.4219 183.611 83.3659 183.749 83.2539C183.889 83.1393 183.996 82.9766 184.069 82.7656C184.144 82.5521 184.182 82.2969 184.182 82C184.182 81.7031 184.144 81.4492 184.069 81.2383C183.996 81.0247 183.889 80.862 183.749 80.75C183.611 80.6354 183.443 80.5781 183.245 80.5781C183.047 80.5781 182.876 80.6354 182.733 80.75C182.592 80.862 182.483 81.0247 182.405 81.2383C182.329 81.4492 182.292 81.7031 182.292 82ZM189.459 77V85H187.303V77H189.459ZM193.449 85.1094C192.798 85.1094 192.24 84.9805 191.777 84.7227C191.313 84.4622 190.958 84.1003 190.71 83.6367C190.463 83.1706 190.339 82.6302 190.339 82.0156C190.339 81.401 190.463 80.862 190.71 80.3984C190.958 79.9323 191.313 79.5703 191.777 79.3125C192.24 79.0521 192.798 78.9219 193.449 78.9219C194.1 78.9219 194.657 79.0521 195.121 79.3125C195.584 79.5703 195.94 79.9323 196.187 80.3984C196.434 80.862 196.558 81.401 196.558 82.0156C196.558 82.6302 196.434 83.1706 196.187 83.6367C195.94 84.1003 195.584 84.4622 195.121 84.7227C194.657 84.9805 194.1 85.1094 193.449 85.1094ZM193.464 83.5156C193.647 83.5156 193.804 83.4544 193.937 83.332C194.07 83.2096 194.173 83.0352 194.246 82.8086C194.319 82.582 194.355 82.3125 194.355 82C194.355 81.6849 194.319 81.4154 194.246 81.1914C194.173 80.9648 194.07 80.7904 193.937 80.668C193.804 80.5456 193.647 80.4844 193.464 80.4844C193.272 80.4844 193.106 80.5456 192.968 80.668C192.83 80.7904 192.725 80.9648 192.652 81.1914C192.579 81.4154 192.542 81.6849 192.542 82C192.542 82.3125 192.579 82.582 192.652 82.8086C192.725 83.0352 192.83 83.2096 192.968 83.332C193.106 83.4544 193.272 83.5156 193.464 83.5156ZM200.324 87.375C199.722 87.375 199.207 87.2891 198.777 87.1172C198.35 86.9479 198.018 86.7135 197.781 86.4141C197.546 86.1172 197.415 85.776 197.386 85.3906H199.464C199.485 85.5182 199.537 85.6211 199.621 85.6992C199.704 85.7773 199.811 85.8333 199.941 85.8672C200.074 85.9036 200.222 85.9219 200.386 85.9219C200.665 85.9219 200.895 85.8542 201.078 85.7188C201.263 85.5833 201.355 85.3385 201.355 84.9844V83.9688H201.292C201.214 84.1719 201.095 84.3451 200.933 84.4883C200.772 84.6289 200.578 84.737 200.351 84.8125C200.125 84.8854 199.876 84.9219 199.605 84.9219C199.178 84.9219 198.785 84.8229 198.425 84.625C198.069 84.4271 197.782 84.1133 197.566 83.6836C197.352 83.2539 197.246 82.6927 197.246 82C197.246 81.276 197.358 80.6875 197.582 80.2344C197.808 79.7812 198.1 79.4492 198.457 79.2383C198.816 79.0273 199.194 78.9219 199.589 78.9219C199.886 78.9219 200.147 78.974 200.371 79.0781C200.595 79.1797 200.782 79.3164 200.933 79.4883C201.084 79.6576 201.199 79.8437 201.277 80.0469H201.324V79H203.48V84.9844C203.48 85.4922 203.348 85.9232 203.085 86.2773C202.825 86.6341 202.458 86.9063 201.984 87.0938C201.51 87.2813 200.957 87.375 200.324 87.375ZM200.402 83.3906C200.6 83.3906 200.769 83.3359 200.91 83.2266C201.053 83.1146 201.162 82.9557 201.238 82.75C201.316 82.5417 201.355 82.2917 201.355 82C201.355 81.7031 201.316 81.4492 201.238 81.2383C201.162 81.0247 201.053 80.862 200.91 80.75C200.769 80.6354 200.6 80.5781 200.402 80.5781C200.204 80.5781 200.035 80.6354 199.894 80.75C199.756 80.862 199.649 81.0247 199.574 81.2383C199.501 81.4492 199.464 81.7031 199.464 82C199.464 82.2969 199.501 82.5495 199.574 82.7578C199.649 82.9635 199.756 83.1211 199.894 83.2305C200.035 83.3372 200.204 83.3906 200.402 83.3906ZM206.737 85V77H208.893V80.0469H208.924C209.002 79.8437 209.117 79.6576 209.268 79.4883C209.419 79.3164 209.607 79.1797 209.831 79.0781C210.055 78.974 210.315 78.9219 210.612 78.9219C211.008 78.9219 211.384 79.0273 211.741 79.2383C212.1 79.4492 212.392 79.7812 212.616 80.2344C212.842 80.6875 212.956 81.276 212.956 82C212.956 82.6927 212.847 83.2669 212.631 83.7227C212.418 84.1784 212.131 84.5182 211.772 84.7422C211.415 84.9661 211.023 85.0781 210.596 85.0781C210.315 85.0781 210.064 85.0326 209.842 84.9414C209.624 84.8477 209.436 84.7214 209.28 84.5625C209.126 84.401 209.008 84.2187 208.924 84.0156H208.877V85H206.737ZM208.846 82C208.846 82.2917 208.884 82.5443 208.959 82.7578C209.038 82.9687 209.147 83.1328 209.288 83.25C209.431 83.3646 209.601 83.4219 209.799 83.4219C209.997 83.4219 210.165 83.3659 210.303 83.2539C210.444 83.1393 210.551 82.9766 210.624 82.7656C210.699 82.5521 210.737 82.2969 210.737 82C210.737 81.7031 210.699 81.4492 210.624 81.2383C210.551 81.0247 210.444 80.862 210.303 80.75C210.165 80.6354 209.997 80.5781 209.799 80.5781C209.601 80.5781 209.431 80.6354 209.288 80.75C209.147 80.862 209.038 81.0247 208.959 81.2383C208.884 81.4492 208.846 81.7031 208.846 82ZM214.988 87.25C214.74 87.25 214.505 87.2305 214.281 87.1914C214.057 87.1549 213.86 87.1042 213.691 87.0391L214.16 85.5078C214.337 85.5703 214.498 85.6107 214.644 85.6289C214.792 85.6471 214.919 85.6367 215.023 85.5977C215.13 85.5586 215.207 85.4844 215.253 85.375L215.3 85.2656L213.191 79H215.441L216.41 83.1562H216.472L217.457 79H219.722L217.535 85.5C217.425 85.8307 217.266 86.1276 217.058 86.3906C216.852 86.6563 216.582 86.8659 216.246 87.0195C215.91 87.1732 215.49 87.25 214.988 87.25ZM222.167 77H224.589L226.152 80.25H226.214L227.777 77H230.199L227.261 82.4844V85H225.105V82.4844L222.167 77ZM231.203 85.0938C230.82 85.0938 230.481 85.0313 230.187 84.9062C229.895 84.7786 229.666 84.5859 229.5 84.3281C229.333 84.0703 229.25 83.7422 229.25 83.3437C229.25 83.0156 229.306 82.7357 229.417 82.5039C229.529 82.2695 229.686 82.0781 229.886 81.9297C230.087 81.7812 230.32 81.668 230.585 81.5898C230.854 81.5117 231.143 81.4609 231.453 81.4375C231.789 81.4115 232.058 81.3802 232.261 81.3437C232.467 81.3047 232.615 81.2513 232.707 81.1836C232.798 81.1133 232.843 81.0208 232.843 80.9062V80.8906C232.843 80.7344 232.783 80.6146 232.664 80.5312C232.544 80.4479 232.39 80.4062 232.203 80.4062C231.997 80.4062 231.829 80.4518 231.699 80.543C231.571 80.6315 231.494 80.7682 231.468 80.9531H229.484C229.51 80.5885 229.626 80.2526 229.832 79.9453C230.04 79.6354 230.343 79.388 230.742 79.2031C231.14 79.0156 231.638 78.9219 232.234 78.9219C232.664 78.9219 233.049 78.9727 233.39 79.0742C233.731 79.1732 234.022 79.3125 234.261 79.4922C234.501 79.6693 234.683 79.8776 234.808 80.1172C234.936 80.3542 235 80.612 235 80.8906V85H232.984V84.1562H232.937C232.817 84.3802 232.671 84.5612 232.5 84.6992C232.33 84.8372 232.136 84.9375 231.917 85C231.701 85.0625 231.463 85.0938 231.203 85.0938ZM231.906 83.7344C232.07 83.7344 232.223 83.7005 232.367 83.6328C232.513 83.5651 232.631 83.4674 232.722 83.3398C232.813 83.2122 232.859 83.0573 232.859 82.875V82.375C232.802 82.3984 232.74 82.4206 232.675 82.4414C232.613 82.4622 232.545 82.4818 232.472 82.5C232.402 82.5182 232.326 82.5352 232.246 82.5508C232.167 82.5664 232.085 82.5807 232 82.5938C231.833 82.6198 231.696 82.6628 231.589 82.7227C231.485 82.7799 231.407 82.8516 231.355 82.9375C231.306 83.0208 231.281 83.1146 231.281 83.2187C231.281 83.3854 231.339 83.513 231.457 83.6016C231.574 83.6901 231.723 83.7344 231.906 83.7344ZM238.186 81.625V85H236.03V79H238.077V80.1406H238.139C238.269 79.7604 238.499 79.4622 238.827 79.2461C239.157 79.0299 239.543 78.9219 239.983 78.9219C240.407 78.9219 240.776 79.0195 241.088 79.2148C241.403 79.4076 241.647 79.6732 241.819 80.0117C241.993 80.3503 242.079 80.737 242.077 81.1719V85H239.92V81.625C239.923 81.3281 239.847 81.0951 239.694 80.9258C239.543 80.7565 239.332 80.6719 239.061 80.6719C238.884 80.6719 238.729 80.7109 238.596 80.7891C238.466 80.8646 238.366 80.974 238.295 81.1172C238.225 81.2578 238.189 81.4271 238.186 81.625ZM246.032 87.375C245.43 87.375 244.915 87.2891 244.485 87.1172C244.058 86.9479 243.726 86.7135 243.489 86.4141C243.254 86.1172 243.123 85.776 243.094 85.3906H245.172C245.193 85.5182 245.245 85.6211 245.329 85.6992C245.412 85.7773 245.519 85.8333 245.649 85.8672C245.782 85.9036 245.93 85.9219 246.094 85.9219C246.373 85.9219 246.603 85.8542 246.786 85.7188C246.971 85.5833 247.063 85.3385 247.063 84.9844V83.9688H247C246.922 84.1719 246.803 84.3451 246.641 84.4883C246.48 84.6289 246.286 84.737 246.059 84.8125C245.833 84.8854 245.584 84.9219 245.313 84.9219C244.886 84.9219 244.493 84.8229 244.133 84.625C243.777 84.4271 243.49 84.1133 243.274 83.6836C243.06 83.2539 242.954 82.6927 242.954 82C242.954 81.276 243.066 80.6875 243.29 80.2344C243.516 79.7812 243.808 79.4492 244.165 79.2383C244.524 79.0273 244.902 78.9219 245.297 78.9219C245.594 78.9219 245.855 78.974 246.079 79.0781C246.303 79.1797 246.49 79.3164 246.641 79.4883C246.792 79.6576 246.907 79.8437 246.985 80.0469H247.032V79H249.188V84.9844C249.188 85.4922 249.056 85.9232 248.793 86.2773C248.533 86.6341 248.166 86.9063 247.692 87.0938C247.218 87.2813 246.665 87.375 246.032 87.375ZM246.11 83.3906C246.308 83.3906 246.477 83.3359 246.618 83.2266C246.761 83.1146 246.87 82.9557 246.946 82.75C247.024 82.5417 247.063 82.2917 247.063 82C247.063 81.7031 247.024 81.4492 246.946 81.2383C246.87 81.0247 246.761 80.862 246.618 80.75C246.477 80.6354 246.308 80.5781 246.11 80.5781C245.912 80.5781 245.743 80.6354 245.602 80.75C245.464 80.862 245.357 81.0247 245.282 81.2383C245.209 81.4492 245.172 81.7031 245.172 82C245.172 82.2969 245.209 82.5495 245.282 82.7578C245.357 82.9635 245.464 83.1211 245.602 83.2305C245.743 83.3372 245.912 83.3906 246.11 83.3906ZM256.757 79.5C256.736 79.2396 256.639 79.0365 256.464 78.8906C256.292 78.7448 256.031 78.6719 255.679 78.6719C255.455 78.6719 255.272 78.6992 255.128 78.7539C254.988 78.806 254.884 78.8776 254.816 78.9687C254.748 79.0599 254.713 79.1641 254.71 79.2812C254.705 79.3776 254.722 79.4648 254.761 79.543C254.803 79.6185 254.868 79.6875 254.957 79.75C255.045 79.8099 255.158 79.8646 255.296 79.9141C255.434 79.9635 255.598 80.0078 255.789 80.0469L256.445 80.1875C256.888 80.2812 257.266 80.4049 257.582 80.5586C257.897 80.7122 258.154 80.8932 258.355 81.1016C258.556 81.3073 258.703 81.5391 258.796 81.7969C258.893 82.0547 258.942 82.3359 258.945 82.6406C258.942 83.1667 258.811 83.612 258.55 83.9766C258.29 84.3411 257.917 84.6185 257.433 84.8086C256.951 84.9987 256.372 85.0938 255.695 85.0938C255 85.0938 254.393 84.9909 253.875 84.7852C253.359 84.5794 252.958 84.263 252.671 83.8359C252.388 83.4062 252.244 82.8568 252.242 82.1875H254.304C254.317 82.4323 254.378 82.638 254.488 82.8047C254.597 82.9714 254.751 83.0977 254.949 83.1836C255.149 83.2695 255.388 83.3125 255.664 83.3125C255.895 83.3125 256.089 83.2839 256.246 83.2266C256.402 83.1693 256.52 83.0898 256.601 82.9883C256.682 82.8867 256.723 82.7708 256.726 82.6406C256.723 82.5182 256.683 82.4115 256.605 82.3203C256.529 82.2266 256.404 82.1432 256.23 82.0703C256.056 81.9948 255.82 81.9245 255.523 81.8594L254.726 81.6875C254.018 81.5339 253.459 81.2773 253.05 80.918C252.644 80.556 252.442 80.0625 252.445 79.4375C252.442 78.9297 252.578 78.4857 252.851 78.1055C253.127 77.7227 253.509 77.4245 253.996 77.2109C254.485 76.9974 255.046 76.8906 255.679 76.8906C256.325 76.8906 256.884 76.9987 257.355 77.2148C257.826 77.431 258.19 77.7357 258.445 78.1289C258.703 78.5195 258.833 78.9766 258.835 79.5H256.757ZM261.474 85.0938C261.091 85.0938 260.753 85.0313 260.458 84.9062C260.167 84.7786 259.938 84.5859 259.771 84.3281C259.604 84.0703 259.521 83.7422 259.521 83.3437C259.521 83.0156 259.577 82.7357 259.689 82.5039C259.801 82.2695 259.957 82.0781 260.158 81.9297C260.358 81.7812 260.591 81.668 260.857 81.5898C261.125 81.5117 261.414 81.4609 261.724 81.4375C262.06 81.4115 262.33 81.3802 262.533 81.3437C262.738 81.3047 262.887 81.2513 262.978 81.1836C263.069 81.1133 263.115 81.0208 263.115 80.9062V80.8906C263.115 80.7344 263.055 80.6146 262.935 80.5312C262.815 80.4479 262.662 80.4062 262.474 80.4062C262.268 80.4062 262.1 80.4518 261.97 80.543C261.843 80.6315 261.766 80.7682 261.74 80.9531H259.755C259.781 80.5885 259.897 80.2526 260.103 79.9453C260.311 79.6354 260.615 79.388 261.013 79.2031C261.412 79.0156 261.909 78.9219 262.505 78.9219C262.935 78.9219 263.32 78.9727 263.662 79.0742C264.003 79.1732 264.293 79.3125 264.533 79.4922C264.772 79.6693 264.955 79.8776 265.08 80.1172C265.207 80.3542 265.271 80.612 265.271 80.8906V85H263.255V84.1562H263.208C263.089 84.3802 262.943 84.5612 262.771 84.6992C262.602 84.8372 262.408 84.9375 262.189 85C261.973 85.0625 261.735 85.0938 261.474 85.0938ZM262.177 83.7344C262.341 83.7344 262.495 83.7005 262.638 83.6328C262.784 83.5651 262.903 83.4674 262.994 83.3398C263.085 83.2122 263.13 83.0573 263.13 82.875V82.375C263.073 82.3984 263.012 82.4206 262.947 82.4414C262.884 82.4622 262.817 82.4818 262.744 82.5C262.673 82.5182 262.598 82.5352 262.517 82.5508C262.439 82.5664 262.357 82.5807 262.271 82.5938C262.104 82.6198 261.968 82.6628 261.861 82.7227C261.757 82.7799 261.679 82.8516 261.626 82.9375C261.577 83.0208 261.552 83.1146 261.552 83.2187C261.552 83.3854 261.611 83.513 261.728 83.6016C261.845 83.6901 261.995 83.7344 262.177 83.7344ZM268.458 81.625V85H266.301V79H268.348V80.1406H268.411C268.541 79.7604 268.77 79.4622 269.098 79.2461C269.429 79.0299 269.814 78.9219 270.254 78.9219C270.679 78.9219 271.047 79.0195 271.36 79.2148C271.675 79.4076 271.918 79.6732 272.09 80.0117C272.265 80.3503 272.351 80.737 272.348 81.1719V85H270.192V81.625C270.194 81.3281 270.119 81.0951 269.965 80.9258C269.814 80.7565 269.603 80.6719 269.333 80.6719C269.155 80.6719 269 80.7109 268.868 80.7891C268.737 80.8646 268.637 80.974 268.567 81.1172C268.497 81.2578 268.46 81.4271 268.458 81.625ZM276.303 87.375C275.702 87.375 275.186 87.2891 274.756 87.1172C274.329 86.9479 273.997 86.7135 273.76 86.4141C273.526 86.1172 273.394 85.776 273.366 85.3906H275.444C275.465 85.5182 275.517 85.6211 275.6 85.6992C275.683 85.7773 275.79 85.8333 275.92 85.8672C276.053 85.9036 276.202 85.9219 276.366 85.9219C276.644 85.9219 276.875 85.8542 277.057 85.7188C277.242 85.5833 277.334 85.3385 277.334 84.9844V83.9688H277.272C277.194 84.1719 277.074 84.3451 276.913 84.4883C276.751 84.6289 276.557 84.737 276.331 84.8125C276.104 84.8854 275.855 84.9219 275.584 84.9219C275.157 84.9219 274.764 84.8229 274.405 84.625C274.048 84.4271 273.762 84.1133 273.545 83.6836C273.332 83.2539 273.225 82.6927 273.225 82C273.225 81.276 273.337 80.6875 273.561 80.2344C273.788 79.7812 274.079 79.4492 274.436 79.2383C274.795 79.0273 275.173 78.9219 275.569 78.9219C275.866 78.9219 276.126 78.974 276.35 79.0781C276.574 79.1797 276.762 79.3164 276.913 79.4883C277.064 79.6576 277.178 79.8437 277.256 80.0469H277.303V79H279.459V84.9844C279.459 85.4922 279.328 85.9232 279.065 86.2773C278.805 86.6341 278.437 86.9063 277.963 87.0938C277.489 87.2813 276.936 87.375 276.303 87.375ZM276.381 83.3906C276.579 83.3906 276.749 83.3359 276.889 83.2266C277.032 83.1146 277.142 82.9557 277.217 82.75C277.295 82.5417 277.334 82.2917 277.334 82C277.334 81.7031 277.295 81.4492 277.217 81.2383C277.142 81.0247 277.032 80.862 276.889 80.75C276.749 80.6354 276.579 80.5781 276.381 80.5781C276.183 80.5781 276.014 80.6354 275.874 80.75C275.736 80.862 275.629 81.0247 275.553 81.2383C275.48 81.4492 275.444 81.7031 275.444 82C275.444 82.2969 275.48 82.5495 275.553 82.7578C275.629 82.9635 275.736 83.1211 275.874 83.2305C276.014 83.3372 276.183 83.3906 276.381 83.3906ZM284.748 85L282.388 77H284.81L285.904 81.9219H285.966L287.263 77H289.169L290.466 81.9375H290.529L291.623 77H294.044L291.685 85H289.607L288.248 80.5312H288.185L286.826 85H284.748ZM296.971 85.1094C296.32 85.1094 295.763 84.9805 295.299 84.7227C294.836 84.4622 294.48 84.1003 294.233 83.6367C293.986 83.1706 293.862 82.6302 293.862 82.0156C293.862 81.401 293.986 80.862 294.233 80.3984C294.48 79.9323 294.836 79.5703 295.299 79.3125C295.763 79.0521 296.32 78.9219 296.971 78.9219C297.622 78.9219 298.18 79.0521 298.643 79.3125C299.107 79.5703 299.462 79.9323 299.709 80.3984C299.957 80.862 300.081 81.401 300.081 82.0156C300.081 82.6302 299.957 83.1706 299.709 83.6367C299.462 84.1003 299.107 84.4622 298.643 84.7227C298.18 84.9805 297.622 85.1094 296.971 85.1094ZM296.987 83.5156C297.169 83.5156 297.327 83.4544 297.459 83.332C297.592 83.2096 297.695 83.0352 297.768 82.8086C297.841 82.582 297.877 82.3125 297.877 82C297.877 81.6849 297.841 81.4154 297.768 81.1914C297.695 80.9648 297.592 80.7904 297.459 80.668C297.327 80.5456 297.169 80.4844 296.987 80.4844C296.794 80.4844 296.629 80.5456 296.491 80.668C296.353 80.7904 296.247 80.9648 296.174 81.1914C296.101 81.4154 296.065 81.6849 296.065 82C296.065 82.3125 296.101 82.582 296.174 82.8086C296.247 83.0352 296.353 83.2096 296.491 83.332C296.629 83.4544 296.794 83.5156 296.987 83.5156ZM303.846 85.1094C303.195 85.1094 302.638 84.9805 302.174 84.7227C301.711 84.4622 301.355 84.1003 301.108 83.6367C300.861 83.1706 300.737 82.6302 300.737 82.0156C300.737 81.401 300.861 80.862 301.108 80.3984C301.355 79.9323 301.711 79.5703 302.174 79.3125C302.638 79.0521 303.195 78.9219 303.846 78.9219C304.497 78.9219 305.055 79.0521 305.518 79.3125C305.982 79.5703 306.337 79.9323 306.584 80.3984C306.832 80.862 306.956 81.401 306.956 82.0156C306.956 82.6302 306.832 83.1706 306.584 83.6367C306.337 84.1003 305.982 84.4622 305.518 84.7227C305.055 84.9805 304.497 85.1094 303.846 85.1094ZM303.862 83.5156C304.044 83.5156 304.202 83.4544 304.334 83.332C304.467 83.2096 304.57 83.0352 304.643 82.8086C304.716 82.582 304.752 82.3125 304.752 82C304.752 81.6849 304.716 81.4154 304.643 81.1914C304.57 80.9648 304.467 80.7904 304.334 80.668C304.202 80.5456 304.044 80.4844 303.862 80.4844C303.669 80.4844 303.504 80.5456 303.366 80.668C303.228 80.7904 303.122 80.9648 303.049 81.1914C302.976 81.4154 302.94 81.6849 302.94 82C302.94 82.3125 302.976 82.582 303.049 82.8086C303.122 83.0352 303.228 83.2096 303.366 83.332C303.504 83.4544 303.669 83.5156 303.862 83.5156ZM313.959 81V82.625H310.209V81H313.959Z" fill="black"/>
</svg>
